<mxfile host="65bd71144e">
    <diagram id="GCuZozuYtKDpK3Ur-H2B" name="Page-1">
        <mxGraphModel dx="942" dy="649" grid="1" gridSize="10" guides="1" tooltips="1" connect="1" arrows="1" fold="1" page="1" pageScale="1" pageWidth="850" pageHeight="1100" math="0" shadow="0">
            <root>
                <mxCell id="0"/>
                <mxCell id="1" parent="0"/>
                <mxCell id="9" style="edgeStyle=orthogonalEdgeStyle;html=1;endArrow=ERmany;endFill=0;strokeWidth=1;jumpSize=11;" edge="1" parent="1" source="2" target="3">
                    <mxGeometry relative="1" as="geometry"/>
                </mxCell>
                <mxCell id="10" style="edgeStyle=orthogonalEdgeStyle;jumpSize=11;html=1;strokeWidth=1;endArrow=ERmany;endFill=0;" edge="1" parent="1" source="2" target="6">
                    <mxGeometry relative="1" as="geometry"/>
                </mxCell>
                <mxCell id="11" style="edgeStyle=orthogonalEdgeStyle;jumpSize=11;html=1;strokeWidth=1;endArrow=ERmany;endFill=0;" edge="1" parent="1" source="2" target="5">
                    <mxGeometry relative="1" as="geometry">
                        <Array as="points">
                            <mxPoint x="420" y="500"/>
                            <mxPoint x="420" y="580"/>
                        </Array>
                    </mxGeometry>
                </mxCell>
                <mxCell id="2" value="tblUsers" style="whiteSpace=wrap;html=1;align=center;" vertex="1" parent="1">
                    <mxGeometry x="300" y="480" width="100" height="40" as="geometry"/>
                </mxCell>
                <mxCell id="3" value="tblStatistics" style="whiteSpace=wrap;html=1;align=center;" vertex="1" parent="1">
                    <mxGeometry x="450" y="480" width="100" height="40" as="geometry"/>
                </mxCell>
                <mxCell id="12" style="edgeStyle=orthogonalEdgeStyle;jumpSize=11;html=1;strokeWidth=1;endArrow=ERmany;endFill=0;" edge="1" parent="1" source="5" target="3">
                    <mxGeometry relative="1" as="geometry"/>
                </mxCell>
                <mxCell id="5" value="tblGames" style="whiteSpace=wrap;html=1;align=center;" vertex="1" parent="1">
                    <mxGeometry x="450" y="560" width="100" height="40" as="geometry"/>
                </mxCell>
                <mxCell id="6" value="tblMessages" style="whiteSpace=wrap;html=1;align=center;" vertex="1" parent="1">
                    <mxGeometry x="300" y="560" width="100" height="40" as="geometry"/>
                </mxCell>
            </root>
        </mxGraphModel>
    </diagram>
</mxfile>